<svg width="195" height="46" viewBox="0 0 195 46" fill="none" xmlns="http://www.w3.org/2000/svg">
<circle cx="22" cy="25" r="7" stroke="url(#paint0_linear_106_918)" stroke-width="2"/>
<circle cx="22" cy="25" r="7" stroke="black" stroke-opacity="0.2" stroke-width="2"/>
<path d="M40 25C40 34.3632 32.191 42 22.5 42C12.809 42 5 34.3632 5 25C5 15.6368 12.809 8 22.5 8C32.191 8 40 15.6368 40 25Z" stroke="url(#paint1_linear_106_918)" stroke-width="2"/>
<path d="M40 25C40 34.3632 32.191 42 22.5 42C12.809 42 5 34.3632 5 25C5 15.6368 12.809 8 22.5 8C32.191 8 40 15.6368 40 25Z" stroke="black" stroke-opacity="0.2" stroke-width="2"/>
<path d="M40 23C40 33.4703 31.293 42 20.5 42C9.70703 42 1 33.4703 1 23C1 12.5297 9.70703 4 20.5 4C31.293 4 40 12.5297 40 23Z" stroke="url(#paint2_linear_106_918)" stroke-width="2"/>
<path d="M40 23C40 33.4703 31.293 42 20.5 42C9.70703 42 1 33.4703 1 23C1 12.5297 9.70703 4 20.5 4C31.293 4 40 12.5297 40 23Z" stroke="black" stroke-opacity="0.2" stroke-width="2"/>
<path d="M32.1232 25.6086C32.1041 26.4038 32.0335 27.1966 31.9112 27.987C31.6866 28.7601 31.4121 29.5183 31.0876 30.2616C30.6676 30.9629 30.2027 31.6374 29.6929 32.2851C29.1005 32.8684 28.4712 33.4145 27.8048 33.9234C27.0745 34.3492 26.3176 34.7296 25.5342 35.0645C24.7099 35.3026 23.8713 35.4897 23.0187 35.626C22.1511 35.6575 21.2828 35.6359 20.4139 35.5611C19.5576 35.3801 18.7144 35.1471 17.8843 34.8619C17.0941 34.4761 16.3302 34.0426 15.5927 33.5613C14.9202 32.9914 14.2858 32.3813 13.6895 31.731C13.1797 31.0099 12.7176 30.2589 12.3032 29.4779C11.9916 28.6488 11.7344 27.8021 11.5315 26.9378C11.4416 26.0517 11.4093 25.1616 11.4348 24.2675C11.5762 23.3797 11.775 22.5021 12.0311 21.6348C12.399 20.8018 12.8203 19.9929 13.295 19.2079C13.8699 18.4839 14.4907 17.7963 15.1575 17.1452C15.9064 16.578 16.6908 16.0576 17.5106 15.5842C18.3888 15.2127 19.2896 14.8956 20.2129 14.633C21.1668 14.4842 22.1286 14.3941 23.0983 14.3626C24.0685 14.4498 25.0311 14.5962 25.9864 14.8018C26.9113 15.1235 27.8136 15.5011 28.6933 15.9346C29.5134 16.4741 30.2969 17.0628 31.0438 17.7005C31.7052 18.4272 32.3181 19.1929 32.8826 19.9976C33.3404 20.8683 33.7409 21.7653 34.0841 22.6886C34.3061 23.6502 34.4652 24.6236 34.5616 25.6086C34.5297 26.6016 34.4336 27.5906 34.273 28.5757C33.9853 29.5373 33.6358 30.4795 33.2244 31.4021C32.6951 32.2707 32.1104 33.1052 31.4704 33.9056C30.7292 34.6246 29.9429 35.2968 29.1114 35.9222C28.2021 36.4434 27.2609 36.908 26.2878 37.316C25.2656 37.6033 24.227 37.8275 23.1718 37.9887C22.1 38.0202 21.0284 37.9861 19.957 37.8864C18.9029 37.6562 17.866 37.362 16.8461 37.0039C15.877 36.5226 14.9411 35.9831 14.0384 35.3853C13.2171 34.6798 12.4432 33.9254 11.7168 33.1224C11.0976 32.234 10.5374 31.3096 10.036 30.3493C9.66134 29.3318 9.35345 28.2935 9.11233 27.2345C9.00957 26.1506 8.97731 25.0627 9.01556 23.9708C9.19523 22.8883 9.44469 21.8192 9.76395 20.7633C10.2187 19.7511 10.7382 18.7688 11.3223 17.8165C12.0273 16.9397 12.7876 16.1079 13.6032 15.3211C14.5173 14.6375 15.4737 14.0112 16.4724 13.4422C17.5404 12.9978 18.635 12.6196 19.7559 12.3076C20.9124 12.134 22.0776 12.0315 23.2514 12C24.4241 12.1121 25.5869 12.2955 26.7399 12.5504C27.8546 12.945 28.9413 13.4068 29.9999 13.9359C30.9851 14.5919 31.9256 15.3066 32.8214 16.08C33.6128 16.9594 34.3455 17.8851 35.0194 18.8572C35.5642 19.9072 36.0397 20.9881 36.4459 22.0998C36.7061 23.2562 36.8908 24.4258 37 25.6086" stroke="url(#paint3_linear_106_918)" stroke-width="2" stroke-linecap="round"/>
<path d="M32.1232 25.6086C32.1041 26.4038 32.0335 27.1966 31.9112 27.987C31.6866 28.7601 31.4121 29.5183 31.0876 30.2616C30.6676 30.9629 30.2027 31.6374 29.6929 32.2851C29.1005 32.8684 28.4712 33.4145 27.8048 33.9234C27.0745 34.3492 26.3176 34.7296 25.5342 35.0645C24.7099 35.3026 23.8713 35.4897 23.0187 35.626C22.1511 35.6575 21.2828 35.6359 20.4139 35.5611C19.5576 35.3801 18.7144 35.1471 17.8843 34.8619C17.0941 34.4761 16.3302 34.0426 15.5927 33.5613C14.9202 32.9914 14.2858 32.3813 13.6895 31.731C13.1797 31.0099 12.7176 30.2589 12.3032 29.4779C11.9916 28.6488 11.7344 27.8021 11.5315 26.9378C11.4416 26.0517 11.4093 25.1616 11.4348 24.2675C11.5762 23.3797 11.775 22.5021 12.0311 21.6348C12.399 20.8018 12.8203 19.9929 13.295 19.2079C13.8699 18.4839 14.4907 17.7963 15.1575 17.1452C15.9064 16.578 16.6908 16.0576 17.5106 15.5842C18.3888 15.2127 19.2896 14.8956 20.2129 14.633C21.1668 14.4842 22.1286 14.3941 23.0983 14.3626C24.0685 14.4498 25.0311 14.5962 25.9864 14.8018C26.9113 15.1235 27.8136 15.5011 28.6933 15.9346C29.5134 16.4741 30.2969 17.0628 31.0438 17.7005C31.7052 18.4272 32.3181 19.1929 32.8826 19.9976C33.3404 20.8683 33.7409 21.7653 34.0841 22.6886C34.3061 23.6502 34.4652 24.6236 34.5616 25.6086C34.5297 26.6016 34.4336 27.5906 34.273 28.5757C33.9853 29.5373 33.6358 30.4795 33.2244 31.4021C32.6951 32.2707 32.1104 33.1052 31.4704 33.9056C30.7292 34.6246 29.9429 35.2968 29.1114 35.9222C28.2021 36.4434 27.2609 36.908 26.2878 37.316C25.2656 37.6033 24.227 37.8275 23.1718 37.9887C22.1 38.0202 21.0284 37.9861 19.957 37.8864C18.9029 37.6562 17.866 37.362 16.8461 37.0039C15.877 36.5226 14.9411 35.9831 14.0384 35.3853C13.2171 34.6798 12.4432 33.9254 11.7168 33.1224C11.0976 32.234 10.5374 31.3096 10.036 30.3493C9.66134 29.3318 9.35345 28.2935 9.11233 27.2345C9.00957 26.1506 8.97731 25.0627 9.01556 23.9708C9.19523 22.8883 9.44469 21.8192 9.76395 20.7633C10.2187 19.7511 10.7382 18.7688 11.3223 17.8165C12.0273 16.9397 12.7876 16.1079 13.6032 15.3211C14.5173 14.6375 15.4737 14.0112 16.4724 13.4422C17.5404 12.9978 18.635 12.6196 19.7559 12.3076C20.9124 12.134 22.0776 12.0315 23.2514 12C24.4241 12.1121 25.5869 12.2955 26.7399 12.5504C27.8546 12.945 28.9413 13.4068 29.9999 13.9359C30.9851 14.5919 31.9256 15.3066 32.8214 16.08C33.6128 16.9594 34.3455 17.8851 35.0194 18.8572C35.5642 19.9072 36.0397 20.9881 36.4459 22.0998C36.7061 23.2562 36.8908 24.4258 37 25.6086" stroke="black" stroke-opacity="0.2" stroke-width="2" stroke-linecap="round"/>
<path d="M57.988 34.04H67.748V37H54.348V9.12H57.988V34.04ZM78.3736 9.12V26.76C78.3736 29.24 78.9736 31.08 80.1736 32.28C81.4003 33.48 83.0936 34.08 85.2536 34.08C87.3869 34.08 89.0536 33.48 90.2536 32.28C91.4803 31.08 92.0936 29.24 92.0936 26.76V9.12H95.7336V26.72C95.7336 29.04 95.2669 31 94.3336 32.6C93.4003 34.1733 92.1336 35.3467 90.5336 36.12C88.9603 36.8933 87.1869 37.28 85.2136 37.28C83.2403 37.28 81.4536 36.8933 79.8536 36.12C78.2803 35.3467 77.0269 34.1733 76.0936 32.6C75.1869 31 74.7336 29.04 74.7336 26.72V9.12H78.3736ZM133.286 9.32V37H129.646V16.36L120.446 37H117.886L108.646 16.32V37H105.006V9.32H108.926L119.166 32.2L129.406 9.32H133.286ZM146.299 12.08V21.4H156.459V24.4H146.299V34H157.659V37H142.659V9.08H157.659V12.08H146.299ZM179.007 37.28C176.42 37.28 174.06 36.68 171.927 35.48C169.793 34.2533 168.1 32.56 166.847 30.4C165.62 28.2133 165.007 25.76 165.007 23.04C165.007 20.32 165.62 17.88 166.847 15.72C168.1 13.5333 169.793 11.84 171.927 10.64C174.06 9.41333 176.42 8.8 179.007 8.8C181.62 8.8 183.993 9.41333 186.127 10.64C188.26 11.84 189.94 13.52 191.167 15.68C192.393 17.84 193.007 20.2933 193.007 23.04C193.007 25.7867 192.393 28.24 191.167 30.4C189.94 32.56 188.26 34.2533 186.127 35.48C183.993 36.68 181.62 37.28 179.007 37.28ZM179.007 34.12C180.953 34.12 182.7 33.6667 184.247 32.76C185.82 31.8533 187.047 30.56 187.927 28.88C188.833 27.2 189.287 25.2533 189.287 23.04C189.287 20.8 188.833 18.8533 187.927 17.2C187.047 15.52 185.833 14.2267 184.287 13.32C182.74 12.4133 180.98 11.96 179.007 11.96C177.033 11.96 175.273 12.4133 173.727 13.32C172.18 14.2267 170.953 15.52 170.047 17.2C169.167 18.8533 168.727 20.8 168.727 23.04C168.727 25.2533 169.167 27.2 170.047 28.88C170.953 30.56 172.18 31.8533 173.727 32.76C175.3 33.6667 177.06 34.12 179.007 34.12Z" fill="#68E1FF"/>
<defs>
<linearGradient id="paint0_linear_106_918" x1="22" y1="17" x2="22" y2="33" gradientUnits="userSpaceOnUse">
<stop stop-color="#68E1FF"/>
<stop offset="1" stop-color="#7E4AEF"/>
</linearGradient>
<linearGradient id="paint1_linear_106_918" x1="22.5" y1="7" x2="22.5" y2="43" gradientUnits="userSpaceOnUse">
<stop stop-color="#68E1FF"/>
<stop offset="1" stop-color="#7E4AEF"/>
</linearGradient>
<linearGradient id="paint2_linear_106_918" x1="20.5" y1="3" x2="20.5" y2="43" gradientUnits="userSpaceOnUse">
<stop stop-color="#68E1FF"/>
<stop offset="1" stop-color="#7E4AEF"/>
</linearGradient>
<linearGradient id="paint3_linear_106_918" x1="23" y1="12" x2="23" y2="38" gradientUnits="userSpaceOnUse">
<stop stop-color="#68E1FF"/>
<stop offset="1" stop-color="#7E4AEF"/>
</linearGradient>
</defs>
</svg>
